<svg class="steps123_steps-line--1__NmShc" width="229" height="21" viewBox="0 0 229 21" fill="none" xmlns="http://www.w3.org/2000/svg"><path d="M5.61401 18.6273C5.87057 18.5252 5.99575 18.2344 5.8936 17.9779C5.79146 17.7213 5.50068 17.5961 5.24412 17.6983L5.61401 18.6273ZM14.3063 14.371C14.0447 14.4595 13.9043 14.7432 13.9927 15.0048C14.0812 15.2664 14.3649 15.4068 14.6265 15.3184L14.3063 14.371ZM23.7744 12.4677C24.0398 12.3916 24.1933 12.1147 24.1173 11.8493C24.0412 11.5838 23.7643 11.4303 23.4988 11.5064L23.7744 12.4677ZM32.8177 9.049C32.5493 9.11392 32.3843 9.38413 32.4492 9.65253C32.5141 9.92093 32.7843 10.0859 33.0527 10.021L32.8177 9.049ZM42.4298 7.94233C42.7005 7.88756 42.8755 7.62376 42.8207 7.3531C42.766 7.08244 42.5022 6.90742 42.2315 6.96219L42.4298 7.94233ZM51.7041 5.2158C51.4317 5.2613 51.2478 5.51899 51.2933 5.79136C51.3388 6.06372 51.5965 6.24764 51.8689 6.20214L51.7041 5.2158ZM61.3596 4.77048C61.6333 4.73349 61.8252 4.48167 61.7882 4.20801C61.7512 3.93436 61.4993 3.7425 61.2257 3.77949L61.3596 4.77048ZM70.7887 2.62825C70.5141 2.65736 70.3151 2.90358 70.3442 3.17818C70.3733 3.45278 70.6195 3.65179 70.8941 3.62267L70.7887 2.62825ZM80.4592 2.73885C80.7345 2.71707 80.94 2.47625 80.9182 2.20097C80.8964 1.92569 80.6556 1.72018 80.3803 1.74196L80.4592 2.73885ZM89.9895 1.10351C89.7138 1.11841 89.5023 1.35402 89.5172 1.62976C89.5321 1.9055 89.7677 2.11695 90.0435 2.10205L89.9895 1.10351ZM99.6404 1.69777C99.9164 1.68937 100.133 1.45881 100.125 1.18279C100.117 0.906779 99.886 0.689834 99.61 0.698234L99.6404 1.69777ZM109.238 0.514117C108.962 0.516323 108.74 0.741961 108.742 1.01809C108.744 1.29423 108.97 1.51629 109.246 1.51409L109.238 0.514117ZM118.852 1.54149C119.128 1.54523 119.355 1.32443 119.359 1.04831C119.363 0.772195 119.142 0.545322 118.866 0.541577L118.852 1.54149ZM128.487 0.773034C128.211 0.763523 127.98 0.979537 127.97 1.25552C127.961 1.53149 128.177 1.76293 128.453 1.77244L128.487 0.773034ZM138.052 2.20201C138.328 2.21717 138.564 2.00594 138.579 1.73021C138.594 1.45449 138.383 1.21868 138.107 1.20351L138.052 2.20201ZM147.72 1.8301C147.445 1.80934 147.205 2.01574 147.184 2.2911C147.163 2.56646 147.37 2.80651 147.645 2.82727L147.72 1.8301ZM157.216 3.64669C157.491 3.67305 157.735 3.47159 157.762 3.19671C157.788 2.92182 157.587 2.67762 157.312 2.65126L157.216 3.64669ZM166.871 3.66767C166.597 3.63562 166.349 3.83198 166.316 4.10626C166.284 4.38053 166.481 4.62886 166.755 4.66091L166.871 3.66767ZM176.302 5.88028C176.575 5.91824 176.828 5.72728 176.866 5.45376C176.904 5.18024 176.713 4.92773 176.439 4.88977L176.302 5.88028ZM185.959 6.3204C185.687 6.27622 185.43 6.46138 185.386 6.73396C185.342 7.00655 185.527 7.26334 185.799 7.30752L185.959 6.3204ZM195.257 8.95878C195.528 9.00969 195.79 8.83094 195.841 8.55953C195.891 8.28812 195.713 8.02683 195.441 7.97592L195.257 8.95878ZM204.89 9.88168C204.621 9.82324 204.354 9.99466 204.296 10.2645C204.237 10.5344 204.409 10.8006 204.679 10.859L204.89 9.88168ZM214.031 13.0392C214.299 13.1064 214.571 12.9437 214.638 12.6759C214.705 12.408 214.542 12.1364 214.275 12.0692L214.031 13.0392ZM223.554 14.5891C223.289 14.5111 223.011 14.6627 222.933 14.9276C222.855 15.1925 223.006 15.4704 223.271 15.5484L223.554 14.5891ZM1.19832 20.4591C2.65235 19.8308 4.12456 19.2203 5.61401 18.6273L5.24412 17.6983C3.74593 18.2947 2.2648 18.9089 0.801675 19.5411L1.19832 20.4591ZM14.6265 15.3184C17.621 14.3062 20.6725 13.3567 23.7744 12.4677L23.4988 11.5064C20.3827 12.3995 17.3163 13.3536 14.3063 14.371L14.6265 15.3184ZM33.0527 10.021C36.1398 9.27437 39.2675 8.58217 42.4298 7.94233L42.2315 6.96219C39.0574 7.60441 35.9174 8.29932 32.8177 9.049L33.0527 10.021ZM51.8689 6.20214C55.0073 5.67784 58.1728 5.20125 61.3596 4.77048L61.2257 3.77949C58.0289 4.21161 54.8532 4.68973 51.7041 5.2158L51.8689 6.20214ZM70.8941 3.62267C74.069 3.28605 77.2592 2.99204 80.4592 2.73885L80.3803 1.74196C77.1717 1.99584 73.9727 2.29065 70.7887 2.62825L70.8941 3.62267ZM90.0435 2.10205C93.2398 1.92931 96.4405 1.79515 99.6404 1.69777L99.61 0.698234C96.4025 0.795847 93.1939 0.930337 89.9895 1.10351L90.0435 2.10205ZM109.246 1.51409C112.456 1.48845 115.66 1.49819 118.852 1.54149L118.866 0.541577C115.667 0.498183 112.455 0.48842 109.238 0.514117L109.246 1.51409ZM128.453 1.77244C131.672 1.8834 134.874 2.02723 138.052 2.20201L138.107 1.20351C134.922 1.02837 131.714 0.884236 128.487 0.773034L128.453 1.77244ZM147.645 2.82727C150.869 3.07026 154.061 3.3441 157.216 3.64669L157.312 2.65126C154.15 2.34803 150.951 2.0736 147.72 1.8301L147.645 2.82727ZM166.755 4.66091C169.988 5.03875 173.173 5.44603 176.302 5.88028L176.439 4.88977C173.303 4.45452 170.111 4.04634 166.871 3.66767L166.755 4.66091ZM185.799 7.30752C189.028 7.83079 192.183 8.38223 195.257 8.95878L195.441 7.97592C192.359 7.39781 189.196 6.84495 185.959 6.3204L185.799 7.30752ZM204.679 10.859C207.915 11.5598 211.037 12.2879 214.031 13.0392L214.275 12.0692C211.269 11.3152 208.137 10.5846 204.89 9.88168L204.679 10.859ZM223.271 15.5484C224.845 16.0116 226.371 16.4811 227.847 16.9559L228.153 16.004C226.669 15.5265 225.135 15.0546 223.554 14.5891L223.271 15.5484Z" fill="#C8C8C8"></path></svg>